<svg width="75" height="37" viewBox="0 0 75 37" fill="none" xmlns="http://www.w3.org/2000/svg">
<path d="M22.65 1.7C22.9167 1.2 23.3667 0.849999 24 0.649997C24.6333 0.449998 25.4333 0.349998 26.4 0.349998C27.3667 0.349998 28.1333 0.433331 28.7 0.599998C29.2667 0.766664 29.7 0.966665 30 1.2C30.3 1.43333 30.5333 1.76666 30.7 2.2C30.8667 2.76667 30.95 3.63333 30.95 4.8V32.55C30.95 33.3167 30.9167 33.9 30.85 34.3C30.8167 34.6667 30.6667 35.1 30.4 35.6C29.9333 36.5 28.6333 36.95 26.5 36.95C24.1667 36.95 22.8 36.3333 22.4 35.1C22.2 34.5333 22.1 33.6667 22.1 32.5V22.35H8.85V32.55C8.85 33.3167 8.81667 33.9 8.75 34.3C8.71667 34.6667 8.56667 35.1 8.3 35.6C7.83333 36.5 6.53333 36.95 4.4 36.95C2.06667 36.95 0.7 36.3333 0.3 35.1C0.1 34.5333 1.41561e-07 33.6667 1.41561e-07 32.5V4.75C1.41561e-07 3.98333 0.0166668 3.41666 0.0500001 3.05C0.116667 2.65 0.283333 2.2 0.55 1.7C1.01667 0.799998 2.31667 0.349998 4.45 0.349998C6.78333 0.349998 8.16667 0.966665 8.6 2.2C8.76667 2.76667 8.85 3.63333 8.85 4.8V15H22.1V4.75C22.1 3.98333 22.1167 3.41666 22.15 3.05C22.2167 2.65 22.3833 2.2 22.65 1.7ZM73.9109 1.75C74.1776 2.25 74.3276 2.7 74.3609 3.1C74.4276 3.5 74.4609 4.08333 74.4609 4.85V32.6C74.4609 34.9 73.8276 36.25 72.5609 36.65C71.9276 36.85 71.1276 36.95 70.1609 36.95C69.1943 36.95 68.4276 36.8667 67.8609 36.7C67.2943 36.5333 66.8609 36.3333 66.5609 36.1C66.2609 35.8667 66.0276 35.5333 65.8609 35.1C65.6943 34.5333 65.6109 33.6667 65.6109 32.5V15.75C64.7776 16.7833 63.5609 18.4333 61.9609 20.7C60.3609 22.9333 59.3443 24.3333 58.9109 24.9C58.4776 25.4667 58.1776 25.8667 58.0109 26.1C57.8443 26.3 57.4276 26.6 56.7609 27C56.1276 27.3667 55.4276 27.55 54.6609 27.55C53.9276 27.55 53.2443 27.3833 52.6109 27.05C52.0109 26.6833 51.5776 26.3333 51.3109 26L50.9109 25.45C50.2443 24.6167 48.9276 22.85 46.9609 20.15C44.9943 17.4167 43.9276 15.95 43.7609 15.75V32.6C43.7609 33.3667 43.7276 33.95 43.6609 34.35C43.6276 34.7167 43.4776 35.1333 43.2109 35.6C42.7109 36.5 41.4109 36.95 39.3109 36.95C37.2776 36.95 36.0109 36.5 35.5109 35.6C35.2443 35.1333 35.0776 34.7 35.0109 34.3C34.9776 33.9 34.9609 33.3 34.9609 32.5V4.75C34.9609 3.98333 34.9776 3.41666 35.0109 3.05C35.0776 2.65 35.2443 2.2 35.5109 1.7C36.0109 0.833331 37.3109 0.399997 39.4109 0.399997C40.3109 0.399997 41.0776 0.516665 41.7109 0.749999C42.3776 0.949998 42.8109 1.16667 43.0109 1.4L43.3109 1.7L54.6609 16.6C60.3276 9.1 64.1109 4.15 66.0109 1.75C66.5776 0.849998 67.9109 0.399997 70.0109 0.399997C72.1443 0.399997 73.4443 0.849998 73.9109 1.75Z" fill="black"/>
</svg>
